<svg xmlns="http://www.w3.org/2000/svg" width="48" height="48" viewBox="0 0 48 48">
  <defs>
    <style>@import url('https://fonts.googleapis.com/css2?family=Bangers&amp;display=swap');</style>
  </defs>
  <rect width="48" height="48" fill="#F5F0E8" rx="6"/>
  <line x1="0" y1="6" x2="48" y2="6" stroke="#D4CFC6" stroke-width="1.5"/>
  <line x1="0" y1="12" x2="48" y2="12" stroke="#D4CFC6" stroke-width="1.5"/>
  <line x1="0" y1="18" x2="48" y2="18" stroke="#D4CFC6" stroke-width="1.5"/>
  <line x1="0" y1="24" x2="48" y2="24" stroke="#D4CFC6" stroke-width="1.5"/>
  <line x1="0" y1="30" x2="48" y2="30" stroke="#D4CFC6" stroke-width="1.5"/>
  <line x1="0" y1="36" x2="48" y2="36" stroke="#D4CFC6" stroke-width="1.5"/>
  <line x1="0" y1="42" x2="48" y2="42" stroke="#D4CFC6" stroke-width="1.5"/>
  <path d="M 5,3 L 43,3 Q 46,3 46,6 L 46,32 Q 46,35 43,35 L 18,35 L 7,45 L 10,35 L 5,35 Q 2,35 2,32 L 2,6 Q 2,3 5,3 Z"
    fill="#FFFFFF" stroke="#1A1A1A" stroke-width="2" stroke-linejoin="round" stroke-linecap="round"/>
  <text x="24" y="25" font-family="Bangers, sans-serif" font-size="22" fill="#1A1A1A" text-anchor="middle" letter-spacing="2">ST</text>
</svg>
